<?xml version="1.0"?>
<svg xmlns="http://www.w3.org/2000/svg" xmlns:xlink="http://www.w3.org/1999/xlink" xmlns:svgjs="http://svgjs.com/svgjs" version="1.1" width="512" height="512" x="0" y="0" viewBox="0 0 512 512" style="enable-background:new 0 0 512 512" xml:space="preserve" class=""><g><g xmlns="http://www.w3.org/2000/svg"><path d="m120 105c0-24.813-20.187-45-45-45s-45 20.187-45 45 20.187 45 45 45 45-20.187 45-45zm-45 15c-8.271 0-15-6.729-15-15s6.729-15 15-15 15 6.729 15 15-6.729 15-15 15z" fill="#ffffff" data-original="#000000" style="" class=""/><path d="m15 270h120c8.284 0 15-6.716 15-15v-30c0-41.355-33.645-75-75-75s-75 33.645-75 75v30c0 8.284 6.716 15 15 15zm15-45c0-24.813 20.187-45 45-45s45 20.187 45 45v15h-90z" fill="#ffffff" data-original="#000000" style="" class=""/><path d="m482 45c0-24.813-20.187-45-45-45s-45 20.187-45 45 20.187 45 45 45 45-20.187 45-45zm-45 15c-8.271 0-15-6.729-15-15s6.729-15 15-15 15 6.729 15 15-6.729 15-15 15z" fill="#ffffff" data-original="#000000" style="" class=""/><path d="m437 90c-41.355 0-75 33.645-75 75v30c0 8.284 6.716 15 15 15h120c8.284 0 15-6.716 15-15v-30c0-41.355-33.645-75-75-75zm45 90h-90v-15c0-24.813 20.187-45 45-45s45 20.187 45 45z" fill="#ffffff" data-original="#000000" style="" class=""/><path d="m301 165c0-24.813-20.187-45-45-45s-45 20.187-45 45 20.187 45 45 45 45-20.187 45-45zm-45 15c-8.271 0-15-6.729-15-15s6.729-15 15-15 15 6.729 15 15-6.729 15-15 15z" fill="#ffffff" data-original="#000000" style="" class=""/><path d="m196 330h120c8.284 0 15-6.716 15-15v-30c0-41.355-33.645-75-75-75s-75 33.645-75 75v30c0 8.284 6.716 15 15 15zm15-45c0-24.813 20.187-45 45-45s45 20.187 45 45v15h-90z" fill="#ffffff" data-original="#000000" style="" class=""/><path d="m497 482h-15v-227c0-8.284-6.716-15-15-15h-60c-8.284 0-15 6.716-15 15v227h-91v-107c0-8.284-6.716-15-15-15h-60c-8.284 0-15 6.716-15 15v107h-91v-167c0-8.284-6.716-15-15-15h-60c-8.284 0-15 6.716-15 15v167h-15c-8.284 0-15 6.716-15 15s6.716 15 15 15h482c8.284 0 15-6.716 15-15s-6.716-15-15-15zm-75-212h30v212h-30zm-181 120h30v92h-30zm-181-60h30v152h-30z" fill="#ffffff" data-original="#000000" style="" class=""/></g><script/></g></svg>
