<?xml version="1.0"?>
<svg xmlns="http://www.w3.org/2000/svg" xmlns:xlink="http://www.w3.org/1999/xlink" xmlns:svgjs="http://svgjs.com/svgjs" version="1.1" width="512" height="512" x="0" y="0" viewBox="0 0 509.915 509.915" style="enable-background:new 0 0 512 512" xml:space="preserve"><g><g xmlns="http://www.w3.org/2000/svg"><path d="m502.406 348.057c-12.438-18.661-37.053-25.383-57.252-15.637-100.528 55.304-95.907 53.174-102.09 55.207 9.014-28.151-13.402-58.552-43.064-58.058h-62.958c-20.662 0-40.671 6.058-57.862 17.52-8.868 5.912-18.791 9.794-29.18 11.493v-29.012h-150v180h150v-29.012c10.389 1.699 20.311 5.581 29.18 11.493 17.191 11.461 37.2 17.52 57.862 17.52h53.93c18.359 0 36.458-4.869 52.34-14.081l148.729-86.273.854-.678c18.274-14.503 22.453-41.07 9.511-60.482zm-382.406 131.513h-90v-120h90zm354.938-95.116-146.679 85.084c-11.314 6.563-24.208 10.032-37.287 10.032h-53.93c-14.72 0-28.975-4.316-41.222-12.48-13.825-9.218-29.476-14.933-45.82-16.82v-61.4c16.345-1.887 31.995-7.602 45.82-16.82 12.247-8.165 26.502-12.48 41.222-12.48h62.958c19.861.81 19.925 29.175.031 30-26.477 0-18.629 0-45.031 0v30h75.031c14.667 0 22.992-3.411 32.858-7.653l95.603-52.619c6.734-3.068 14.831-.783 18.953 5.4 4.184 6.276 3.046 14.775-2.507 19.756z" fill="#ffffff" data-original="#000000" style=""/><path d="m345 299.57c82.71 0 150-67.29 150-150-8.24-198.995-291.791-198.938-300 .001 0 82.709 67.29 149.999 150 149.999zm-45.56-38.993 45.56-27.548v-23.459h23.787l6.213 6.213v30l15.017 15.016c-28.969 11.767-61.621 11.706-90.577-.222zm163.571-89.21-51.798-51.797 8.787-8.787v-30l12.857-12.857c26.572 28.573 36.868 67.005 30.154 103.441zm-53.243-122.777-19.768 19.767v30l-21.213 21.213 83.57 83.57c-8.358 16.683-20.488 31.161-35.27 42.303l-12.087-12.086v-30l-23.787-23.787h-66.213v36.541l-44.894 27.145c-15.933-12.763-28.551-29.495-36.343-48.686h51.237v-36.976l42.497-28.353 17.722-51.38-.271-48.291c23.194.001 45.512 6.594 64.82 19.02zm-94.8-15.214.222 39.54-12.755 36.983-47.435 31.647v23.024h-29.064c-7.566-60.398 31.227-116.244 89.032-131.194z" fill="#ffffff" data-original="#000000" style=""/><path d="m60 389.57h30v30h-30z" fill="#ffffff" data-original="#000000" style=""/></g><script/></g></svg>
